<?xml version="1.0" encoding="UTF-8" standalone="no"?>
<!-- Created with Inkscape (http://www.inkscape.org/) -->

<svg
   version="1.1"
   id="svg2"
   width="452.255"
   height="426.70715"
   viewBox="0 0 452.255 426.70715"
   sodipodi:docname="logo-outline.svg"
   inkscape:version="1.2.2 (b0a8486541, 2022-12-01)"
   xmlns:inkscape="http://www.inkscape.org/namespaces/inkscape"
   xmlns:sodipodi="http://sodipodi.sourceforge.net/DTD/sodipodi-0.dtd"
   xmlns:xlink="http://www.w3.org/1999/xlink"
   xmlns="http://www.w3.org/2000/svg"
   xmlns:svg="http://www.w3.org/2000/svg">
  <sodipodi:namedview
     id="namedview690"
     pagecolor="#ffffff"
     bordercolor="#000000"
     borderopacity="0.25"
     inkscape:showpageshadow="2"
     inkscape:pageopacity="0.0"
     inkscape:pagecheckerboard="false"
     inkscape:deskcolor="#d1d1d1"
     showgrid="false"
     inkscape:zoom="0.921875"
     inkscape:cx="295.59322"
     inkscape:cy="82.983051"
     inkscape:window-width="1862"
     inkscape:window-height="1131"
     inkscape:window-x="58"
     inkscape:window-y="32"
     inkscape:window-maximized="1"
     inkscape:current-layer="svg2" />
  <defs
     id="defs6">
    <color-profile
       name="Apple-RGB"
       xlink:href="file:///usr/share/color/icc/colord/AppleRGB.icc"
       id="color-profile10856" />
    <linearGradient
       id="linearGradient1279"
       inkscape:swatch="solid">
      <stop
         style="stop-color:#c9a23a;stop-opacity:1;"
         offset="0"
         id="stop1277" />
    </linearGradient>
  </defs>
  <path
     id="path1400"
     style="color:#000000;fill:#c9a23a;fill-opacity:1;stroke:none;-inkscape-stroke:none"
     d="M 183.11436,0.03164411 C 134.57949,0.86334411 86.4004,18.203474 52.42686,53.557034 l -0.002,0.002 -0.002,0.002 C -4.0907601,113.67797 -12.64364,206.7251 15.90138,281.74071 c 23.436,64.60273 84.90259,114.46996 154.14843,119.44922 h 0.008 l 0.01,0.002 c 18.72275,0.71168 37.92657,1.90783 56.35938,-2.94531 l 0.13867,-0.0352 0.0977,-0.10547 c 0.55007,-0.58553 0.54875,-1.44554 0.23243,-2.27539 -0.31633,-0.82986 -0.92771,-1.73655 -1.75586,-2.73633 -1.6563,-1.99956 -4.19825,-4.35369 -7.0625,-6.76758 -5.72853,-4.82778 -12.74257,-9.87284 -16.37891,-12.46875 l -0.14844,-0.10547 -0.18164,0.0137 C 167.4122,376.48739 131.99794,363.68709 109.21825,337.95949 77.33792,301.52274 76.92875,249.94125 77.5327,204.01027 l -0.002,0.0215 c 1.76164,-31.87353 -3.77963,-64.33352 4.39258,-95.35156 l 0.002,-0.006 0.002,-0.008 C 92.4611,63.328724 134.32075,24.261524 182.30814,26.361534 h 0.0332 l 0.0332,-0.002 c 36.30816,-3.32443 70.57475,18.71745 90.36328,48.14649 l 0.0391,0.0566 0.0527,0.0449 c 9.2268,7.86572 11.72969,22.96283 15.39844,36.123046 1.83437,6.5801 3.96687,12.6751 7.48633,17.13086 3.51944,4.45574 8.47472,7.2298 15.69921,7.06836 l 0.0371,-0.002 0.0371,-0.006 c 7.81596,-1.35461 17.07222,-0.0159 25.95313,0.42383 8.88091,0.43969 17.44074,-0.0224 23.79883,-5.19141 l 0.23437,-0.18945 -0.0586,-0.29492 C 351.07253,77.165264 310.68886,32.939764 261.4249,13.471094 l -0.002,-0.002 -0.004,-0.002 C 239.73897,5.2634141 216.3465,0.74504411 192.82125,0.08428411 c -3.23473,-0.0908 -6.47138,-0.10818 -9.70703,-0.0527 z M 208.90732,173.73672 c -1.60962,-0.0259 -3.19592,-0.006 -4.74804,0.0762 -3.10425,0.16463 -6.07763,0.57497 -8.84961,1.35351 -5.54397,1.55709 -10.28979,4.61325 -13.56445,10.0625 l -0.082,0.13672 0.0137,0.16016 c 0.57068,7.28669 -0.96733,16.13133 -1.20899,24.51562 -0.24166,8.38431 0.82949,16.38663 6.78711,21.85547 l 0.125,0.11524 0.16992,0.0156 c 33.46937,2.91072 67.53049,-1.06594 101.02735,2.32617 -0.41276,23.64462 0.53247,48.73093 -10.79102,70.00391 l -0.002,0.004 -0.002,0.002 c -2.36665,4.63043 -1.94425,8.46015 0.17188,11.62891 2.11613,3.16874 5.8283,5.71301 10.01367,8.16406 8.37075,4.90208 18.64265,9.45836 22.12305,16.82617 l 0.0488,0.0996 0.084,0.0703 c 0.88784,0.73909 1.63817,1.75967 2.50977,2.71485 0.8716,0.95516 1.88931,1.8533 3.31836,2.2246 l 0.30273,0.0801 0.20313,-0.23632 c 27.28304,-31.66924 41.7188,-73.34958 48.48632,-114.35743 l 0.008,-0.0391 v -0.041 c 0.0248,-8.85248 2.46955,-19.06004 3.34375,-28.9336 0.8742,-9.87356 0.16358,-19.47501 -6.26563,-26.99805 l -0.14844,-0.17578 -109.9375,-0.34765 -0.0566,0.0137 c -10.73366,2.52965 -24.98762,-0.29025 -38.1875,-1.11914 -1.64998,-0.10362 -3.28295,-0.17525 -4.89258,-0.20117 z M 185.41514,296.9457 c -2.68312,-0.0442 -5.36791,-0.029 -8.05078,0.0469 -19.48481,0.55141 -38.88568,4.27372 -57.10157,11.17187 -5.72906,-0.0346 -9.39499,1.53346 -11.35156,4.01953 -1.96944,2.50244 -2.14318,5.83785 -1.1543,9.08203 0.9889,3.24419 3.13203,6.44331 5.90625,8.83203 2.77424,2.38874 6.19683,3.97237 9.74805,3.87891 l 0.0664,-0.002 0.0644,-0.0195 c 28.10128,-8.47843 57.32674,3.49264 76.46484,24.66406 l 0.004,0.006 0.004,0.004 c 32.40316,33.93785 73.92108,61.57646 121.51172,67.20704 l 0.01,0.002 h 0.01 c 28.99127,2.25849 58.9916,0.58992 86.248,-10.71484 l 0.014,-0.006 0.016,-0.006 c 15.113,-7.35713 34.1857,-13.59039 43.4922,-28.48438 l 0.9395,-1.50195 -1.586,0.78906 c -24.8754,12.385 -54.6989,14.1942 -81.05464,5.53906 l -0.008,-0.002 -0.01,-0.002 c -29.8681,-8.70835 -51.58044,-31.75547 -74.04688,-52.08399 l -0.004,-0.002 C 265.61284,311.7796 225.66195,297.60846 185.41514,296.9457 Z" />
</svg>
