<?xml version="1.0" encoding="UTF-8" standalone="no"?>
<!-- Created with Inkscape (http://www.inkscape.org/) -->

<svg
   version="1.1"
   id="svg2"
   width="1536"
   height="1024"
   viewBox="0 0 1536 1024"
   xmlns="http://www.w3.org/2000/svg"
   xmlns:svg="http://www.w3.org/2000/svg">
  <defs
     id="defs6" />
  <g
     id="g8">
    <path
       style="fill:#000000"
       d="m 941.38136,701.6392 c -47.43477,-5.61213 -88.8591,-33.17425 -121.20864,-67.05592 -19.24511,-21.2898 -48.66188,-33.35124 -76.97948,-24.80756 -13.57398,0.35723 -25.84397,-25.03904 -3.0363,-24.81787 58.18865,-22.06827 128.56278,-11.58255 174.8495,31.07408 22.44679,20.31043 44.213,43.4387 74.24654,52.19564 26.48152,8.69646 56.43222,6.88075 81.43302,-5.56664 -9.1762,14.68558 -28.1272,20.91941 -43.288,28.29982 -27.1527,11.2617 -57.07098,12.93339 -86.01664,10.67845 z m 41.6777,-3.9867 c 27.63044,-3.04244 55.62634,-12.8244 78.05604,-28.59252 -37.3187,13.35084 -80.71765,5.92705 -111.52611,-19.03918 -27.78355,-21.79282 -51.27312,-50.29636 -85.49303,-62.56645 -42.96292,-17.27607 -93.26226,-14.62172 -134.9068,5.21068 10.20261,25.68506 39.46953,1.0374 58.73857,14.29578 33.5125,14.91936 53.19896,49.21649 85.58976,66.26673 32.61568,19.63236 71.61188,29.19403 109.54157,24.42496 z M 789.88136,676.98964 C 720.84992,672.02579 659.53105,622.28099 636.16451,557.86052 607.68015,483.00428 616.22786,390.15009 672.5824,330.20237 c 52.54437,-54.67873 139.25377,-66.15434 208.45521,-39.96853 49.11012,19.40787 89.37769,63.51648 99.68249,115.83205 -12.39652,10.07813 -33.65265,1.91171 -49.52267,4.6622 -28.37501,0.63408 -19.38669,-44.12324 -38.24861,-60.20277 -19.87316,-29.55489 -54.28793,-51.71071 -90.82417,-48.36539 -48.27037,-2.11239 -90.30358,37.13203 -100.88913,82.69217 -8.20822,31.15472 -2.65057,63.65375 -4.40797,95.4506 -0.60408,45.93964 -0.22241,97.67608 31.81222,134.28723 22.89557,25.85848 58.45595,38.70726 92.56442,35.97382 7.2689,5.18911 28.02614,20.16059 24.89038,23.49851 -18.33039,4.82617 -37.48228,3.63937 -56.21321,2.92738 z m 44,-4.62631 c 17.10683,0.80034 -9.20513,-13.8771 -13.60539,-19.24291 -37.44071,2.05066 -76.75225,-11.96785 -99.5239,-42.83925 -29.31527,-40.0207 -28.32642,-91.78811 -27.69229,-139.08648 0.59755,-35.61301 -4.5281,-72.91232 10.8783,-106.35639 16.85048,-44.25616 64.7584,-72.68101 111.69984,-67.43897 47.20952,3.98495 84.56455,42.99973 97.53498,86.93965 2.60931,13.29738 5.19329,25.78453 21.01672,21.35065 14.73058,0 29.46116,0 44.19174,0 C 965.83759,340.76358 907.41061,290.93604 843.04519,281.33704 779.65497,271.08551 707.8589,288.65998 667.238,341.21307 c -56.57675,70.2672 -56.21091,175.99851 -9.35079,251.1311 33.08104,52.08099 94.50831,84.69979 156.39025,81.33086 6.54945,-0.1566 13.09134,-0.60234 19.6039,-1.3117 z m 96.4582,-55.2963 c -7.21227,-15.26798 -41.54373,-18.12125 -32.31547,-36.17655 11.4806,-21.56815 10.42354,-46.94098 10.85727,-70.70086 -33.7175,-3.48275 -67.94031,0.55616 -101.49277,-2.36178 -11.60102,-10.64923 -4.2613,-31.2688 -5.41835,-46.04241 12.83156,-21.3525 48.10943,-4.80212 69.9271,-9.94399 36.54958,0.11606 73.09915,0.23212 109.64872,0.34818 12.60919,14.75442 2.85126,37.72105 2.80109,55.6067 -6.75779,40.94887 -21.17465,82.54021 -48.37305,114.11119 -2.59159,-0.67338 -3.72909,-3.25428 -5.63454,-4.84048 z m 13.427,-11.67124 c 29.10023,-43.14648 40.71779,-96.05289 40.6142,-147.56101 -23.47644,-9.52269 -51.98219,-1.43834 -77.42243,-4.13269 -31.69252,0.006 -63.38505,0.0114 -95.07757,0.017 -12.65833,10.41974 -8.7019,36.63144 -3.44374,49.77274 15.72271,2.60131 32.20791,0.55335 48.29812,1.19778 18.54854,0 37.09708,0 55.64562,0 0.22016,27.8298 1.08894,57.84841 -13.65766,82.57596 12.26812,6.42098 29.49974,25.40939 39.44962,26.60052 1.8644,-2.82356 3.7286,-5.64726 5.59384,-8.47026 z"
       id="path170" />
  </g>
</svg>
